# xmcd
#
# Track frame offsets: 
#        150
#        18215
#        34647
#        52414
#        66625
#        89970
#        111775
#        129700
#        145637
#        158570
#        178627
#        193800
#        209597
#
# Disc length: 3089 seconds
#
# Revision: 2
# Processed by: cddbd v1.5.2PL0 Copyright (c) Steve Scherf et al.
# Submitted via: ExactAudioCopy v0.99pb4
#
DISCID=c70c0f0d
DTITLE=Mark DuFresne - Out Of That Bed
DYEAR=1996
DGENRE=
TTITLE0=Till Death Do Us Part
TTITLE1=13 Weeks
TTITLE2=$50.00 File
TTITLE3=I'll Tell On You
TTITLE4=Liquor and Drugs
TTITLE5=We Have Come for Your Daughters
TTITLE6=Ya Bring Out the Man
TTITLE7=Look But Don't Touch
TTITLE8=Bend Some Steel
TTITLE9=Little Hot Plate
TTITLE10=K.C. Brick Pit
TTITLE11=Lynwood Slim
TTITLE12=Kingdom for a Horse
EXTD=
EXTT0=
EXTT1=
EXTT2=
EXTT3=
EXTT4=
EXTT5=
EXTT6=
EXTT7=
EXTT8=
EXTT9=
EXTT10=
EXTT11=
EXTT12=
PLAYORDER=
